# xmcd
#
# Track frame offsets: 
#        150
#        20402
#        42663
#        59772
#        106389
#        132286
#
# Disc length: 2369 seconds
#
# Revision: 0
# Processed by: cddbd v1.5.2PL0 Copyright (c) Steve Scherf et al.
# Submitted via: ExactAudioCopy v0.99pb3
#
DISCID=55093f06
DTITLE=Albert King - Blues at Sunrise: Live at Montreux
DYEAR=1988
DGENRE=Blues
TTITLE0=Don't Burn Down the Bridge ('Cause You Might Wanna Come Back A
TTITLE0=cross)
TTITLE1=I Believe to My Soul
TTITLE2=For the Love of a Woman
TTITLE3=Blues at Sunrise
TTITLE4=Little Brother (Make a Way)
TTITLE5=Roadhouse Blues
EXTD=
EXTT0=
EXTT1=
EXTT2=
EXTT3=
EXTT4=
EXTT5=
PLAYORDER=
